<?xml version="1.0" encoding="UTF-8"?>
<svg xmlns="http://www.w3.org/2000/svg" xmlns:xlink="http://www.w3.org/1999/xlink" width="64px" height="64px" viewBox="0 0 64 64" version="1.1">
<g id="surface1">
<path style=" stroke:none;fill-rule:nonzero;fill:rgb(100%,47.843137%,34.901962%);fill-opacity:1;" d="M 52.667969 0.851562 L 11.332031 0.851562 C 5.074219 0.851562 0 5.925781 0 12.1875 L 0 51.921875 C 0 58.179688 5.074219 63.253906 11.332031 63.253906 L 52.667969 63.253906 C 58.925781 63.253906 64 58.179688 64 51.921875 L 64 12.1875 C 64 5.925781 58.925781 0.851562 52.667969 0.851562 Z M 52.667969 0.851562 "/>
<path style=" stroke:none;fill-rule:nonzero;fill:rgb(100%,100%,100%);fill-opacity:1;" d="M 42.835938 24.765625 L 42.835938 19.703125 C 43.507812 19.390625 44.074219 18.894531 44.472656 18.273438 C 44.871094 17.648438 45.085938 16.925781 45.089844 16.1875 L 45.089844 16.070312 C 45.085938 15.035156 44.675781 14.046875 43.945312 13.316406 C 43.214844 12.585938 42.222656 12.171875 41.191406 12.167969 L 41.070312 12.167969 C 40.039062 12.171875 39.046875 12.582031 38.316406 13.3125 C 37.585938 14.042969 37.175781 15.035156 37.171875 16.066406 L 37.171875 16.1875 C 37.175781 16.921875 37.386719 17.640625 37.78125 18.261719 C 38.175781 18.882812 38.734375 19.378906 39.398438 19.695312 L 39.421875 19.703125 L 39.421875 24.773438 C 37.488281 25.070312 35.664062 25.875 34.144531 27.105469 L 34.164062 27.085938 L 20.25 16.25 C 20.511719 15.257812 20.425781 14.203125 20 13.269531 C 19.574219 12.332031 18.839844 11.574219 17.917969 11.121094 C 16.996094 10.667969 15.945312 10.550781 14.945312 10.785156 C 13.945312 11.019531 13.054688 11.59375 12.433594 12.410156 C 11.808594 13.226562 11.488281 14.234375 11.523438 15.261719 C 11.558594 16.289062 11.949219 17.269531 12.628906 18.039062 C 13.308594 18.8125 14.234375 19.324219 15.246094 19.488281 C 16.261719 19.652344 17.300781 19.460938 18.1875 18.945312 L 18.167969 18.953125 L 31.851562 29.605469 C 30.640625 31.417969 30 33.550781 30.007812 35.730469 C 30.003906 38.027344 30.714844 40.269531 32.046875 42.144531 L 32.023438 42.109375 L 27.859375 46.273438 C 27.527344 46.167969 27.179688 46.109375 26.828125 46.105469 L 26.824219 46.105469 C 26.109375 46.105469 25.410156 46.316406 24.816406 46.714844 C 24.222656 47.109375 23.757812 47.675781 23.484375 48.335938 C 23.210938 48.996094 23.140625 49.722656 23.277344 50.425781 C 23.417969 51.125 23.761719 51.769531 24.269531 52.273438 C 24.773438 52.78125 25.417969 53.125 26.117188 53.265625 C 26.820312 53.402344 27.546875 53.332031 28.207031 53.058594 C 28.867188 52.785156 29.433594 52.320312 29.828125 51.726562 C 30.226562 51.132812 30.4375 50.433594 30.4375 49.71875 C 30.433594 49.359375 30.375 49.003906 30.261719 48.660156 L 30.269531 48.6875 L 34.386719 44.566406 C 35.730469 45.589844 37.289062 46.296875 38.945312 46.628906 C 40.601562 46.960938 42.3125 46.910156 43.945312 46.480469 C 45.578125 46.050781 47.09375 45.253906 48.371094 44.152344 C 49.652344 43.050781 50.664062 41.671875 51.328125 40.121094 C 51.996094 38.570312 52.300781 36.886719 52.21875 35.199219 C 52.136719 33.511719 51.671875 31.867188 50.855469 30.386719 C 50.042969 28.90625 48.902344 27.632812 47.523438 26.660156 C 46.140625 25.6875 44.558594 25.042969 42.890625 24.773438 L 42.824219 24.765625 Z M 41.121094 41.4375 C 39.996094 41.433594 38.894531 41.097656 37.960938 40.46875 C 37.027344 39.839844 36.296875 38.949219 35.867188 37.90625 C 35.441406 36.867188 35.328125 35.71875 35.550781 34.617188 C 35.773438 33.511719 36.316406 32.496094 37.113281 31.703125 C 37.910156 30.90625 38.925781 30.363281 40.03125 30.144531 C 41.136719 29.925781 42.28125 30.039062 43.324219 30.472656 C 44.363281 30.902344 45.253906 31.632812 45.878906 32.570312 C 46.503906 33.507812 46.839844 34.609375 46.839844 35.734375 L 46.839844 35.738281 C 46.839844 36.488281 46.691406 37.230469 46.40625 37.921875 C 46.117188 38.613281 45.699219 39.242188 45.167969 39.769531 C 44.640625 40.300781 44.011719 40.71875 43.320312 41.007812 C 42.628906 41.292969 41.886719 41.441406 41.136719 41.441406 Z M 41.121094 41.4375 "/>
</g>
</svg>
