<?xml version="1.0" encoding="UTF-8" ?>
<svg width="512" height="512" viewBox="372 -19 160 160" version="1.1" xmlns="http://www.w3.org/2000/svg">
  <g>
    <path fill="#ff7a00" opacity="1.00" d=" M 422.49 1.76 C 442.95 -1.86 464.42 1.05 483.45 9.26 C 497.75 15.62 510.91 25.54 519.19 38.99 C 522.49 43.89 521.48 51.14 516.69 54.70 C 511.90 58.60 504.00 57.65 500.44 52.56 C 491.21 36.83 473.50 28.25 456.14 24.88 C 437.43 21.16 416.09 23.37 401.12 36.13 C 397.16 39.52 390.88 39.44 386.87 36.19 C 382.96 33.25 381.37 27.68 383.13 23.12 C 384.23 19.87 387.05 17.70 389.66 15.69 C 399.27 8.48 410.72 3.94 422.49 1.76 Z"/>
    <path fill="#ff7a00" opacity="1.00" d=" M 427.55 43.72 C 447.00 40.67 468.53 46.19 482.36 60.67 C 485.01 63.67 487.89 66.85 488.82 70.85 C 489.74 75.37 486.92 80.22 482.55 81.69 C 478.47 83.23 473.41 81.53 471.21 77.73 C 466.01 69.35 456.41 64.88 447.03 63.02 C 436.59 60.91 424.64 62.11 416.33 69.32 C 412.33 72.68 405.68 71.60 402.75 67.33 C 399.77 63.41 400.54 57.36 404.36 54.26 C 410.84 48.58 419.12 45.23 427.55 43.72 Z"/>
    <path fill="#ff7a00" opacity="1.00" d=" M 430.55 79.77 C 438.25 77.83 446.84 79.08 453.39 83.67 C 458.48 87.14 462.24 92.83 462.60 99.07 C 463.06 105.26 460.13 111.39 455.44 115.35 C 445.08 124.33 427.71 123.70 418.28 113.65 C 413.26 108.55 411.38 100.57 413.92 93.83 C 416.53 86.64 423.28 81.59 430.55 79.77 Z"/>
  </g>
</svg>
