<svg xmlns="http://www.w3.org/2000/svg" viewBox="0 0 256 256" fill="none">
  <circle cx="128" cy="128" r="128" fill="#2CA01C"/>
  <path d="M85.5 80C71.969 80 61 90.969 61 104.5v47C61 165.031 71.969 176 85.5 176H89v-12h-3.5C78.044 164 73 158.956 73 152v-48c0-6.956 5.044-12 11.5-12h17c6.456 0 11.5 5.044 11.5 12v47.5c0 13.531 10.969 24.5 24.5 24.5H140v-12h-3.5c-6.956 0-12.5-5.544-12.5-12.5V104.5C124 90.969 113.031 80 99.5 80h-14zm85 0c-13.531 0-24.5 10.969-24.5 24.5V152c0 13.531 10.969 24 24.5 24H174v12h-3.5c-6.456 0-11.5-5.044-11.5-12v-47.5C159 114.969 148.031 104 134.5 104H131v12h3.5c6.956 0 12.5 5.544 12.5 12.5V176c0 13.031 10.969 24 24.5 24h14c13.531 0 24.5-10.969 24.5-24.5v-47c0-13.531-10.969-24.5-24.5-24.5h-14z" fill="white"/>
</svg>
