<svg xmlns="http://www.w3.org/2000/svg" width="256" height="256" viewBox="0 0 256 256" role="img" aria-label="Greenhouse">
  <rect width="256" height="256" rx="56" fill="#24A47F"/>
  <path fill="#FFFFFF" d="M150 74c-8 0-15 2-21 6-6-2-13-3-20-3-30 0-53 21-53 50 0 17 8 31 21 40-4 5-6 11-6 17 0 9 4 16 11 21-9 5-15 14-15 25 0 20 22 33 55 33 37 0 62-17 62-43 0-11-4-20-13-26-8-6-19-9-35-11l-20-3c-9-1-13-4-13-9 0-3 1-5 4-7 5 2 11 3 17 3 30 0 53-21 53-50 0-8-2-15-6-22l16-2V74h-9c-11 0-19 0-24 0h-3zm-41 27c14 0 24 10 24 26s-10 26-24 26-24-10-24-26 10-26 24-26zm-3 122l25 4c14 2 21 6 21 15 0 10-13 17-33 17-19 0-31-7-31-18 0-8 6-14 18-18z"/>
</svg>
