<svg xmlns="http://www.w3.org/2000/svg" width="300" height="300"><defs><radialGradient id="prefix__clicksend_icon_only_gradient-a" cx="0%" cy="0%" r="141.4%" fx="0%" fy="0%"><stop offset="0%" stop-color="#F9B25F"/><stop offset="67%" stop-color="#F72CA6"/><stop offset="75.9%" stop-color="#E648AD"/><stop offset="100%" stop-color="#A75FE5"/></radialGradient></defs><g fill="none" fill-rule="evenodd"><path fill="url(#prefix__clicksend_icon_only_gradient-a)" d="M0 0h300v300H0z"/><g fill="#FFF" fill-rule="nonzero"><path d="M234.5 92.3h-16.7v73.4a21.9 21.9 0 0 1-21.7 21.5h-64.2l-1.5 1.5a15 15 0 0 0 13.9 10.8H171l39.3 32.8v-32.8h24.1c7.6 0 15.1-7 15.1-14.5v-79.4c0-7.6-7.5-13.3-15-13.3z"/><path d="M196 67H65.8c-7.6 0-14.6 6.1-14.6 13.7v85c0 7.6 7 14.1 14.6 14.1h24.7v33.3l38.8-33.3H196c7.8 0 14-6.3 14.3-14V80.6A14.2 14.2 0 0 0 196.1 67z"/></g></g></svg>