<svg xmlns="http://www.w3.org/2000/svg" viewBox="0 0 48 48" width="48" height="48">
  <path fill="#25F4EE" d="M35.2 15.5a10.9 10.9 0 0 1-3.9-2.1v11.9a9.9 9.9 0 1 1-9.9-9.9c.4 0 .8 0 1.2.1v4.2a5.7 5.7 0 1 0 4 5.5V6h4a6.7 6.7 0 0 0 4.6 6.5z"/>
  <path fill="#FE2C55" d="M37.2 17.5a10.9 10.9 0 0 1-3.9-2.1v11.9a9.9 9.9 0 1 1-9.9-9.9c.4 0 .8 0 1.2.1v4.2a5.7 5.7 0 1 0 4 5.5V8h4a6.7 6.7 0 0 0 4.6 6.5z"/>
  <path fill="#000" d="M36.2 16.5a10.9 10.9 0 0 1-3.9-2.1v11.9a9.9 9.9 0 1 1-9.9-9.9c.4 0 .8 0 1.2.1v4.2a5.7 5.7 0 1 0 4 5.5V7h4a6.7 6.7 0 0 0 4.6 6.5z"/>
</svg>
