<svg xmlns="http://www.w3.org/2000/svg" width="256" height="256" viewBox="0 0 256 256">
  <rect width="256" height="256" rx="60" fill="#0668E1"/>
  <path fill="#FFFFFF" d="M74.5 78c-19.6 0-31.5 17.4-31.5 43.7 0 30.4 13.9 49.3 33.6 49.3 14.6 0 24-8.6 35.6-30.5 0 0 8.2-15.5 13.8-26.2 2.1 4 12.9 24.7 12.9 24.7 12.7 24 22.3 32 37.4 32 20.5 0 32.7-18.4 32.7-46.6 0-27.9-12.4-45.4-31.9-45.4-14.4 0-24.5 9.6-36.2 31.4-4.1-7.7-7.9-14.9-11.3-21.2C120.3 87.6 108.6 78 92.2 78h-0.1zm-1 20.4c8 0 13.9 4.9 22.1 19.4l-9.5 17.9c-7.6 14.3-11 17.9-16.9 17.9-7.9 0-13.3-8.8-13.3-24.2 0-18.4 6.8-30.9 17.6-30.9zm108 0c10.6 0 17.5 12.1 17.5 30.4 0 15.3-5.2 24.3-13.5 24.3-6 0-9.8-3.9-17.6-18.7l-9-17.3c8.1-14.4 14.4-18.7 22.6-18.7z"/>
</svg>
