<svg xmlns="http://www.w3.org/2000/svg" viewBox="0 0 64 64" fill="none">
  <rect width="64" height="64" rx="12" fill="#1A56DB"/>
  <path d="M18 16h20l8 8v24a4 4 0 0 1-4 4H18a4 4 0 0 1-4-4V20a4 4 0 0 1 4-4z" fill="white" opacity="0.9"/>
  <path d="M38 16v8h8" fill="none" stroke="white" stroke-width="2" opacity="0.9"/>
  <rect x="20" y="30" width="20" height="2" rx="1" fill="#1A56DB" opacity="0.6"/>
  <rect x="20" y="36" width="16" height="2" rx="1" fill="#1A56DB" opacity="0.6"/>
  <rect x="20" y="42" width="18" height="2" rx="1" fill="#1A56DB" opacity="0.6"/>
  <circle cx="48" cy="48" r="12" fill="#3B82F6"/>
  <path d="M44 48l3 3 6-6" stroke="white" stroke-width="2.5" stroke-linecap="round" stroke-linejoin="round"/>
</svg>
