<svg width="256" height="256" viewBox="0 0 256 256" fill="none" xmlns="http://www.w3.org/2000/svg">
<g clip-path="url(#clip0_552_1670)">
<rect width="256" height="256" rx="3" fill="#175CFF"/>
<path fill-rule="evenodd" clip-rule="evenodd" d="M76.7108 120.866V160.022L128.434 191.347L180.21 160.022V108.559L136.063 135.186C131.213 138.094 125.653 138.094 120.803 135.186L60.7415 98.8821C54.4195 95.0223 54.4195 85.3445 60.7415 81.5414L120.803 45.1818C125.653 42.2727 131.213 42.2727 136.063 45.1818L180.21 71.9202L159.881 84.1702L128.434 65.207L113.718 74.1576L87.1208 90.323L101.128 98.7699L128.434 115.44L184.243 81.7649C187.405 79.9189 191.71 80.1425 194.871 81.8205C198.304 83.6665 200.867 87.3027 200.867 91.7785V163.435C200.867 169.028 198.141 173.894 193.454 176.748L136.063 211.485C131.268 214.394 125.653 214.394 120.803 211.485L63.4123 176.748C58.7252 173.894 56.0544 169.084 56.0544 163.435V152.079V108.448L76.7108 120.866Z" fill="white"/>
</g>
<defs>
<clipPath id="clip0_552_1670">
<rect width="256" height="256" fill="white"/>
</clipPath>
</defs>
</svg>
